# xmcd
#
# Track frame offsets:
#	182
#	19565
#	34177
#	45052
#	63025
#	82005
#	99290
#	114662
#	134187
#	148010
#	161362
#	180080
#	197845
#	211505
#	231017
#
# Disc length: 3288 seconds
#
# Revision: 1
# Processed by: cddbd v1.5.2PL0 Copyright (c) Steve Scherf et al.
# Submitted via: EasyCDDAExtractor 12.0.4.1
#
DISCID=b60cd60f
DTITLE=Various Artist - New American Music Volume One
DYEAR=1994
DGENRE=Country
TTITLE0=Trisha Yearwood - Walkaway Joe
TTITLE1=The Mavericks - Oh What A Thrill
TTITLE2=Tracy Byrd - The First Step
TTITLE3=Vince Gill - Still Believe in You
TTITLE4=Nanci Griffith - From A Distance
TTITLE5=Marty Stuart - Love and Luck
TTITLE6=Mark Collie - Trouble's Coming Like A Train
TTITLE7=Reba McEntire and Linda Davis - Does He Love You
TTITLE8=Terry McBride and The Ride - No More Cryin'
TTITLE9=Kelly Willis - Get Real
TTITLE10=Rodney Crowell - Let The Picture Paint Itself
TTITLE11=Trisha Yearwood - The Song Remembers When
TTITLE12=David Lee Murphy - Just Once
TTITLE13=Vince Gill - Whenever You Come Around
TTITLE14=Reba McEntire - Why Haven't I Heard From You
EXTD=
EXTT0=
EXTT1=
EXTT2=
EXTT3=
EXTT4=
EXTT5=
EXTT6=
EXTT7=
EXTT8=
EXTT9=
EXTT10=
EXTT11=
EXTT12=
EXTT13=
EXTT14=
PLAYORDER=
